<svg xmlns="http://www.w3.org/2000/svg" width="125.791" height="52.595" viewBox="0 0 125.791 52.595">
    <g data-name="Layer 2">
        <g data-name="Layer 1">
            <path data-name="Path 5977" d="M136.954 19a20.063 20.063 0 0 0-18.343 11.883l2.289 4.047a16.52 16.52 0 1 1 16 20.636 17.246 17.246 0 0 1-3.342-.332 16.549 16.549 0 0 1-7.509-3.737 16.307 16.307 0 0 1-2.774-3.118c-.653-1.06-8.191-14.153-10.725-18.578-.241-.459-.5-.911-.774-1.353a.754.754 0 0 0-.063-.1 20.063 20.063 0 0 0-35.263 2.541l2.293 4.053a16.52 16.52 0 0 1 30.565-3.669l.2.35v.034l.665 1.146.5.877.2.344c1.106 1.926 2.488 4.334 3.835 6.667l4.953 8.6a20.063 20.063 0 0 0 33.775 1.146v8.69h3.577V38.564A20.063 20.063 0 0 0 136.954 19z" transform="translate(-31.927 -7.409)" style="fill:#0054a6;stroke:#0054a6;stroke-width:1.4px"/>
            <path data-name="Path 5978" d="M62.138 47.48c-6.787 0-11.8-3.525-15.145-9.94l-.573-.992-3.12-5.479-1.026-1.834-.474-.835-4.34-7.242-.235-.4a19.994 19.994 0 0 0-4.586-5.234l-.5-.39-.482-.355-.527-.361c-.344-.235-.7-.447-1.06-.653l-.573-.31-.573-.292a40.99 40.99 0 0 0-1.146-.527 19.117 19.117 0 0 0-2.2-.768 18.757 18.757 0 0 0-2.213-.493l-.608-.092c-.43-.057-.866-.1-1.307-.132-.241 0-.487-.029-.734-.034h-1.7a2.191 2.191 0 0 0-.476.034 8.97 8.97 0 0 0-1.244.132 3.383 3.383 0 0 0-.573.086h-.132l-.751.143c-.344.075-.682.161-1.02.252l-.522.149-.189.057-.539.178c-.361.12-.711.252-1.06.4l-.573.246a19.192 19.192 0 0 0-1.932 1c-.149.08-.292.166-.436.258a17.335 17.335 0 0 0-1.485 1.009l-.47.361-.464.378-.447.4-.436.4c-.149.138-.287.275-.43.418l-.413.43c-.115.126-.235.252-.35.384L5 17.919c-.12.138-.241.275-.355.418-.258.31-.5.625-.745.952q-.172.229-.327.464V0H0v32.56a1.887 1.887 0 0 0 .04.459c.04.149 0 .206.029.3s0 .269.046.407a4.325 4.325 0 0 1 .075.527 20.372 20.372 0 0 0 .396 1.926c.126.482.264.957.424 1.422.034.1.069.206.109.31s.069.2.109.3A19.364 19.364 0 0 0 2.86 41.57l.206.338c.109.166.218.338.327.5a8.828 8.828 0 0 0 .573.762h.046c.195.252.384.5.573.739.31.373.636.739.974 1.095l.338.344c.338.344.694.671 1.06.986l.367.31c.246.2.5.4.757.573.126.1.258.189.39.281l.4.275c.264.183.539.361.814.522.413.252.837.487 1.273.711l.436.218.441.206.447.195.831.332c.241.092.487.172.734.252l.418.132.332.1.373.1c.195.052.39.1.573.143l.338.075a19.043 19.043 0 0 0 2.809.4l.854.04h2.012a6.545 6.545 0 0 0 .745-.069c.436-.052.871-.115 1.3-.189l.275-.052.47-.1.235-.052c.441-.1.883-.218 1.313-.35l.573-.189.1-.034a18.978 18.978 0 0 0 2.035-.866 20.183 20.183 0 0 0 1.88-1.014c.2-.126.407-.246.6-.378s.4-.264.573-.4l.573-.418.573-.436a19.49 19.49 0 0 0 1.565-1.433 20.309 20.309 0 0 0 4.013-5.835l-2.293-4.1c-.057.218-.12.441-.183.653s-.12.39-.189.573a.677.677 0 0 1-.04.115 5.733 5.733 0 0 1-.224.573 6.668 6.668 0 0 1-.264.631 6.493 6.493 0 0 1-.287.608q-.149.31-.31.573a13.061 13.061 0 0 1-.694 1.146 14.717 14.717 0 0 1-1.215 1.657c-.281.332-.573.653-.889.963-.143.155-.3.3-.459.447H31.3a6.917 6.917 0 0 1-.441.39l-.08.075c-.138.12-.275.229-.413.332a1.2 1.2 0 0 1-.166.132c-.143.12-.292.229-.441.332a6.34 6.34 0 0 1-.545.378c-.3.2-.6.39-.917.573s-.573.31-.837.447a4.048 4.048 0 0 1-.43.206l-.4.178-.178.075a7.699 7.699 0 0 1-.516.206l-.218.08c-.155.057-.31.115-.47.16-.344.115-.7.218-1.055.31-.252.063-.5.12-.757.172-.206.046-.413.086-.625.115s-.292.052-.436.069l-.3.034a3.644 3.644 0 0 1-.43.046 2.815 2.815 0 0 1-.384 0 2.791 2.791 0 0 1-.378 0h-.768a16.434 16.434 0 0 1-11.832-4.999 16.88 16.88 0 0 1-.911-1.009 17.2 17.2 0 0 1-1.553-2.23 16.914 16.914 0 0 1-.917-1.84 16.268 16.268 0 0 1-.688-1.966c-.063-.224-.12-.447-.172-.676a16.3 16.3 0 0 1-.447-3.8 16.538 16.538 0 0 1 .086-1.691 16.509 16.509 0 0 1 6.466-11.465 12.988 12.988 0 0 1 1.221-.843c.212-.132.43-.258.648-.384.436-.241.883-.464 1.336-.671a16.486 16.486 0 0 1 6.713-1.336h.722a.636.636 0 0 1 .149 0c.246 0 .487.029.728.052h.126l.648.08.252.04.573.1c.126.029.246.052.367.086.384.08.757.178 1.146.292.149.04.3.086.441.138.355.12.711.246 1.06.39.149.057.3.12.441.189a8.633 8.633 0 0 1 .837.4l.143.075a3.9 3.9 0 0 1 .4.218c.3.161.573.338.877.527a4.93 4.93 0 0 1 .424.281c.235.155.459.327.682.5.046.034.092.063.138.1a4.862 4.862 0 0 1 .4.321l.39.332a4.138 4.138 0 0 1 .373.344 4.282 4.282 0 0 1 .367.355c.246.241.476.487.694.745s.447.516.648.785c.315.407.608.825.883 1.255l.04.057c.3.487.573.992.843 1.508l.075.138 1.066 1.9 4.013 7.142 1.439 2.557 1.2 1.972 2.213 3.629a20.063 20.063 0 0 0 35.683-2.293l-2.362-4.1A16.52 16.52 0 0 1 62.138 47.48z" style="fill:#0054a6;stroke:#0054a6;stroke-width:1.4px" transform="translate(.7 .7)"/>
        </g>
    </g>
</svg>
