<svg data-name="011-instagram" xmlns="http://www.w3.org/2000/svg" width="38.78" height="38.78" viewBox="0 0 38.78 38.78">
    <path data-name="Path 45665" d="M23.102 19.39a3.711 3.711 0 1 1-3.712-3.711 3.711 3.711 0 0 1 3.712 3.711zm0 0"/>
    <path data-name="Path 45666" d="M28.069 12.824a3.687 3.687 0 0 0-2.113-2.113 6.162 6.162 0 0 0-2.067-.383c-1.174-.054-1.526-.065-4.5-.065s-3.325.011-4.5.065a6.165 6.165 0 0 0-2.067.383 3.689 3.689 0 0 0-2.113 2.113 6.161 6.161 0 0 0-.383 2.068c-.054 1.174-.065 1.526-.065 4.5s.012 3.325.065 4.5a6.159 6.159 0 0 0 .383 2.067 3.687 3.687 0 0 0 2.113 2.113 6.152 6.152 0 0 0 2.068.383c1.174.054 1.526.065 4.5.065s3.326-.011 4.5-.065a6.153 6.153 0 0 0 2.068-.383 3.687 3.687 0 0 0 2.113-2.113 6.166 6.166 0 0 0 .384-2.067c.054-1.174.065-1.526.065-4.5s-.011-3.325-.065-4.5a6.153 6.153 0 0 0-.386-2.068zm-8.68 12.284a5.717 5.717 0 1 1 5.717-5.717 5.717 5.717 0 0 1-5.717 5.717zm5.943-10.325a1.336 1.336 0 1 1 1.336-1.336 1.336 1.336 0 0 1-1.335 1.336zm0 0"/>
    <path data-name="Path 45667" d="M19.39 0a19.39 19.39 0 1 0 19.39 19.39A19.392 19.392 0 0 0 19.39 0zm11.067 23.98a8.169 8.169 0 0 1-.517 2.7 5.693 5.693 0 0 1-3.256 3.256 8.174 8.174 0 0 1-2.7.517c-1.187.054-1.567.067-4.59.067s-3.4-.013-4.591-.067a8.174 8.174 0 0 1-2.7-.517 5.693 5.693 0 0 1-3.256-3.256 8.167 8.167 0 0 1-.517-2.7c-.055-1.188-.067-1.567-.067-4.591s.013-3.4.067-4.59a8.17 8.17 0 0 1 .517-2.7A5.7 5.7 0 0 1 12.1 8.841a8.176 8.176 0 0 1 2.7-.517c1.187-.054 1.567-.067 4.59-.067s3.4.013 4.59.067a8.178 8.178 0 0 1 2.7.517 5.695 5.695 0 0 1 3.259 3.259 8.168 8.168 0 0 1 .518 2.7c.054 1.187.067 1.567.067 4.59s-.013 3.403-.067 4.59zm0 0"/>
</svg>
