<svg xmlns="http://www.w3.org/2000/svg" width="41" height="41" viewBox="0 0 41 41">
    <path data-name="Subtraction 3" d="M20.5 41a20.651 20.651 0 0 1-4.131-.416A20.388 20.388 0 0 1 9.038 37.5a20.56 20.56 0 0 1-7.427-9.02 20.4 20.4 0 0 1-1.195-3.849 20.7 20.7 0 0 1 0-8.263A20.388 20.388 0 0 1 3.5 9.038a20.56 20.56 0 0 1 9.02-7.427A20.4 20.4 0 0 1 16.369.416a20.7 20.7 0 0 1 8.263 0 20.388 20.388 0 0 1 7.33 3.084 20.56 20.56 0 0 1 7.427 9.019 20.4 20.4 0 0 1 1.195 3.848 20.7 20.7 0 0 1 0 8.263 20.388 20.388 0 0 1-3.085 7.33 20.56 20.56 0 0 1-9.019 7.427 20.4 20.4 0 0 1-3.848 1.195A20.652 20.652 0 0 1 20.5 41zm4.184-24.256v9.745c0 .257 0 .31-.168.478l-1.738 1.681v.36h8.43v-.359l-1.675-1.64a.5.5 0 0 1-.192-.478V14.47a.5.5 0 0 1 .191-.478l1.715-1.641v-.359h-5.941l-4.235 10.54-4.818-10.54h-6.23v.359l2 2.412a.843.843 0 0 1 .271.7v9.479a1.081 1.081 0 0 1-.289.94l-2.253 2.736v.355h6.4v-.359l-2.257-2.731a1.131 1.131 0 0 1-.266-.434 1.118 1.118 0 0 1-.045-.507v-8.2L19.2 28.977h.653z"/>
</svg>
