<svg xmlns="http://www.w3.org/2000/svg" width="38.78" height="38.78" viewBox="0 0 38.78 38.78">
    <path data-name="013-twitter" d="M19.39 0a19.39 19.39 0 1 0 19.39 19.39A19.392 19.392 0 0 0 19.39 0zm8.853 15.118q.013.286.013.575a12.577 12.577 0 0 1-12.663 12.663 12.6 12.6 0 0 1-6.822-2 9.052 9.052 0 0 0 1.062.062 8.93 8.93 0 0 0 5.528-1.905 4.456 4.456 0 0 1-4.161-3.091 4.436 4.436 0 0 0 2.01-.076 4.452 4.452 0 0 1-3.571-4.363v-.057a4.42 4.42 0 0 0 2.016.557 4.454 4.454 0 0 1-1.378-5.942 12.636 12.636 0 0 0 9.174 4.65 4.453 4.453 0 0 1 7.584-4.059 8.927 8.927 0 0 0 2.826-1.08 4.468 4.468 0 0 1-1.957 2.462 8.876 8.876 0 0 0 2.556-.7 9.045 9.045 0 0 1-2.217 2.304zm0 0"/>
</svg>
