<svg data-name="008-youtube" xmlns="http://www.w3.org/2000/svg" width="38.78" height="38.78" viewBox="0 0 38.78 38.78">
    <path data-name="Path 45663" d="m16.974 23.018 6.307-3.633-6.307-3.633zm0 0"/>
    <path data-name="Path 45664" d="M19.39 0a19.39 19.39 0 1 0 19.39 19.39A19.392 19.392 0 0 0 19.39 0zm12.116 19.41a32 32 0 0 1-.5 5.829 3.036 3.036 0 0 1-2.136 2.136c-1.9.5-9.481.5-9.481.5s-7.565 0-9.481-.519a3.036 3.036 0 0 1-2.136-2.136 31.862 31.862 0 0 1-.5-5.828 31.982 31.982 0 0 1 .5-5.828 3.1 3.1 0 0 1 2.136-2.156c1.9-.5 9.481-.5 9.481-.5s7.585 0 9.481.519a3.037 3.037 0 0 1 2.136 2.136 30.37 30.37 0 0 1 .5 5.847zm0 0"/>
</svg>
