<svg xmlns="http://www.w3.org/2000/svg" width="38.78" height="38.78" viewBox="0 0 38.78 38.78">
    <path data-name="010-linkedin" d="M19.39 0a19.39 19.39 0 1 0 19.39 19.39A19.392 19.392 0 0 0 19.39 0zm-5.635 29.312H9.033V15.1h4.722zm-2.361-16.147h-.031a2.461 2.461 0 1 1 .062-4.909 2.462 2.462 0 1 1-.031 4.909zm19.389 16.147h-4.722v-7.6c0-1.91-.684-3.213-2.392-3.213a2.585 2.585 0 0 0-2.423 1.727 3.234 3.234 0 0 0-.155 1.152v7.934h-4.722s.062-12.874 0-14.207h4.722v2.012a4.688 4.688 0 0 1 4.256-2.345c3.107 0 5.437 2.031 5.437 6.394zm0 0" style="fill:#fff"/>
</svg>
